<?xml version="1.0" encoding="UTF-8"?>
<svg width="981px" height="294px" viewBox="0 0 981 294" version="1.1" xmlns="http://www.w3.org/2000/svg" xmlns:xlink="http://www.w3.org/1999/xlink">
    <!-- Generator: Sketch 48.2 (47327) - http://www.bohemiancoding.com/sketch -->
    <title>Untitled</title>
    <desc>Created with Sketch.</desc>
    <defs>
        <polygon id="path-1" points="0.06 0.975 980.159 0.975 980.159 185.243 0.06 185.243"></polygon>
        <polygon id="path-3" points="0.304 0.024 260.638 0.024 260.638 293.94 0.304 293.94"></polygon>
    </defs>
    <g id="Page-1" stroke="none" stroke-width="1" fill="none" fill-rule="evenodd">
        <g id="PP-705-DEA-Logo-Inline_CMYK">
            <path d="M481.995,142.729 L490.106,142.729 C495.006,142.729 498.048,141.716 500.329,139.182 C502.864,136.394 504.3,131.915 504.3,126.677 C504.3,120.679 502.441,116.031 498.809,113.328 C496.189,111.3 493.486,110.54 489.092,110.54 L481.995,110.54 L481.995,142.729 Z M491.374,98.458 C499.822,98.458 505.905,100.401 510.721,104.71 C516.213,109.695 519.254,117.299 519.254,126.17 C519.254,135.886 516.635,143.067 511.228,148.306 C506.412,152.953 500.751,154.811 491.289,154.811 L467.294,154.811 L467.294,98.458 L491.374,98.458 Z" id="Fill-1" fill="#00A0D3"></path>
            <path d="M525.876,154.811 L539.309,154.811 L539.309,114.004 L525.876,114.004 L525.876,154.811 Z M525.876,108.597 L539.309,108.597 L539.309,98.458 L525.876,98.458 L525.876,108.597 Z" id="Fill-2" fill="#00A0D3"></path>
            <path d="M558.166,132.76 C558.166,139.097 561.208,142.898 566.192,142.898 C571.177,142.898 574.218,139.097 574.218,132.929 C574.218,126.931 571.177,123.129 566.277,123.129 C561.208,123.129 558.166,126.762 558.166,132.76 Z M586.976,149.404 C586.976,155.572 586.3,158.698 584.188,161.824 C580.809,166.809 574.979,169.259 566.277,169.259 C553.942,169.259 547.436,164.95 546.337,156.163 L559.771,156.163 C560.616,159.374 562.559,160.642 566.53,160.642 C572.022,160.642 574.049,158.191 574.049,151.517 L574.049,147.039 C571.177,150.841 567.375,152.699 562.221,152.699 C551.661,152.699 544.986,145.096 544.986,133.014 C544.986,120.848 551.914,112.905 562.559,112.905 C567.797,112.905 571.008,114.596 574.049,119.157 L574.049,114.004 L586.976,114.004 L586.976,149.404 Z" id="Fill-3" fill="#00A0D3"></path>
            <path d="M594.831,154.811 L608.264,154.811 L608.264,114.004 L594.831,114.004 L594.831,154.811 Z M594.831,108.597 L608.264,108.597 L608.264,98.458 L594.831,98.458 L594.831,108.597 Z" id="Fill-4" fill="#00A0D3"></path>
            <path d="M640.056,122.875 L631.692,122.875 L631.692,139.603 C631.692,144.504 632.453,145.349 636.846,145.349 C637.606,145.349 638.705,145.265 640.056,145.18 L640.056,155.065 C637.015,155.318 635.241,155.403 632.622,155.403 C626.032,155.403 622.652,154.305 620.371,151.432 C618.681,149.235 618.258,147.208 618.258,140.871 L618.258,122.875 L611.415,122.875 L611.415,114.004 L618.258,114.004 L618.258,101.5 L631.692,101.5 L631.692,114.004 L640.056,114.004 L640.056,122.875" id="Fill-5" fill="#00A0D3"></path>
            <path d="M670.446,135.548 C668.84,136.562 667.573,136.984 663.856,137.576 C658.111,138.59 656.42,139.772 656.42,142.983 C656.42,145.94 658.449,147.799 661.828,147.799 C664.87,147.799 667.404,146.616 669.009,144.589 C670.108,143.152 670.446,141.885 670.446,139.097 L670.446,135.548 Z M671.291,154.811 C670.869,153.206 670.7,152.361 670.615,150.925 C666.897,154.389 662.757,155.91 657.266,155.91 C648.225,155.91 642.818,151.179 642.818,143.405 C642.818,138.421 645.099,134.957 649.493,132.929 C651.774,131.915 654.055,131.324 659.631,130.563 C669.516,129.212 670.361,128.874 670.361,125.832 C670.361,122.791 668.333,121.354 664.194,121.354 C659.715,121.354 657.942,122.622 657.266,126.508 L644.677,126.508 C645.184,117.468 651.774,112.905 664.363,112.905 C671.038,112.905 676.106,114.088 679.402,116.538 C682.612,118.904 683.542,121.354 683.542,127.352 C683.542,128.282 683.542,128.451 683.457,133.098 C683.457,135.21 683.457,135.21 683.373,139.857 L683.373,143.574 C683.373,149.319 683.71,151.769 684.978,154.811 L671.291,154.811 Z" id="Fill-6" fill="#00A0D3"></path>
            <polygon id="Fill-7" fill="#00A0D3" points="690.965 154.811 704.399 154.811 704.399 98.458 690.965 98.458"></polygon>
            <polyline id="Fill-8" fill="#00A0D3" points="780.352 110.54 749.937 110.54 749.937 119.918 777.733 119.918 777.733 131.493 749.937 131.493 749.937 142.729 781.028 142.729 781.028 154.811 735.236 154.811 735.236 98.458 780.352 98.458 780.352 110.54"></polyline>
            <path d="M812.962,135.548 C811.357,136.562 810.089,136.984 806.373,137.576 C800.627,138.59 798.937,139.772 798.937,142.983 C798.937,145.94 800.965,147.799 804.344,147.799 C807.386,147.799 809.92,146.616 811.526,144.589 C812.625,143.152 812.962,141.885 812.962,139.097 L812.962,135.548 Z M813.807,154.811 C813.385,153.206 813.215,152.361 813.131,150.925 C809.414,154.389 805.274,155.91 799.783,155.91 C790.742,155.91 785.334,151.179 785.334,143.405 C785.334,138.421 787.616,134.957 792.009,132.929 C794.291,131.915 796.572,131.324 802.148,130.563 C812.033,129.212 812.877,128.874 812.877,125.832 C812.877,122.791 810.85,121.354 806.71,121.354 C802.232,121.354 800.458,122.622 799.783,126.508 L787.194,126.508 C787.701,117.468 794.291,112.905 806.879,112.905 C813.554,112.905 818.624,114.088 821.918,116.538 C825.128,118.904 826.058,121.354 826.058,127.352 C826.058,128.282 826.058,128.451 825.973,133.098 C825.973,135.21 825.973,135.21 825.889,139.857 L825.889,143.574 C825.889,149.319 826.227,151.769 827.495,154.811 L813.807,154.811 Z" id="Fill-9" fill="#00A0D3"></path>
            <path d="M862.132,125.494 C859.682,124.818 858.499,124.649 856.978,124.649 C853.345,124.649 850.219,126.255 848.445,129.043 C847.346,130.901 846.839,133.183 846.839,137.069 L846.839,154.811 L833.406,154.811 L833.406,114.004 L846.333,114.004 L846.333,120.932 C849.29,115.271 853.176,112.821 859.09,112.821 C860.527,112.821 861.034,112.905 862.132,113.497 L862.132,125.494" id="Fill-10" fill="#00A0D3"></path>
            <path d="M891.794,122.875 L883.43,122.875 L883.43,139.603 C883.43,144.504 884.191,145.349 888.584,145.349 C889.344,145.349 890.443,145.265 891.794,145.18 L891.794,155.065 C888.753,155.318 886.979,155.403 884.36,155.403 C877.77,155.403 874.39,154.305 872.109,151.432 C870.419,149.235 869.997,147.208 869.997,140.871 L869.997,122.875 L863.153,122.875 L863.153,114.004 L869.997,114.004 L869.997,101.5 L883.43,101.5 L883.43,114.004 L891.794,114.004 L891.794,122.875" id="Fill-11" fill="#00A0D3"></path>
            <path d="M910.912,119.326 C914.207,114.934 918.178,112.905 923.754,112.905 C929.077,112.905 933.385,114.849 935.835,118.481 C937.61,121.017 938.286,123.974 938.286,129.127 L938.286,154.811 L924.852,154.811 L924.852,131.577 C924.852,128.451 924.599,127.184 923.585,126.001 C922.487,124.649 920.712,123.889 918.431,123.889 C915.559,123.889 913.278,125.156 912.01,127.437 C911.166,128.874 910.912,130.563 910.912,134.365 L910.912,154.811 L897.478,154.811 L897.478,98.458 L910.912,98.458 L910.912,119.326" id="Fill-12" fill="#00A0D3"></path>
            <path d="M651.159,201.065 C649.565,196.683 649.034,194.956 648.104,191.769 C647.307,194.558 646.842,195.819 644.983,200.933 L641.331,210.96 L654.811,210.96 L651.159,201.065 Z M669.354,228.624 L661.053,228.624 L656.803,216.87 L639.338,216.87 L634.956,228.624 L626.92,228.624 L644.053,184.331 L652.354,184.331 L669.354,228.624 Z" id="Fill-13" fill="#636463"></path>
            <path d="M708.863,210.296 C708.863,217.202 708.132,220.323 705.609,223.644 C702.488,227.761 697.773,229.686 690.8,229.686 C683.23,229.686 678.25,227.495 675.195,222.847 C673.203,219.858 672.472,216.538 672.472,210.163 L672.472,184.331 L680.242,184.331 L680.242,210.561 C680.242,215.276 680.574,217.136 681.769,219.194 C683.296,221.851 686.417,223.245 690.933,223.245 C695.183,223.245 698.105,221.983 699.566,219.46 C700.695,217.468 701.093,215.144 701.093,210.561 L701.093,184.331 L708.863,184.331 L708.863,210.296" id="Fill-14" fill="#636463"></path>
            <path d="M742.586,197.347 C742.055,191.968 738.934,189.444 733.024,189.444 C727.711,189.444 724.524,191.769 724.524,195.686 C724.524,197.479 725.254,198.808 726.583,199.604 C728.309,200.601 729.571,200.933 735.747,202.394 C741.524,203.722 744.18,204.651 746.438,206.112 C749.891,208.436 751.75,211.69 751.75,215.741 C751.75,224.308 744.977,229.62 734.153,229.62 C722.465,229.62 715.625,223.843 715.493,213.882 L723.129,213.882 C723.329,220.19 727.247,223.444 734.618,223.444 C740.528,223.444 744.114,220.788 744.114,216.405 C744.114,214.147 743.118,212.686 740.528,211.425 C739.133,210.694 738.536,210.495 733.754,209.366 C727.911,207.905 723.594,206.378 721.668,205.183 C718.68,203.257 717.086,200.202 717.086,196.284 C717.086,188.382 723.528,183.335 733.489,183.335 C743.715,183.335 749.692,188.448 750.024,197.347 L742.586,197.347" id="Fill-15" fill="#636463"></path>
            <polyline id="Fill-16" fill="#636463" points="791.18 190.972 777.036 190.972 777.036 228.624 769.266 228.624 769.266 190.972 755.122 190.972 755.122 184.331 791.18 184.331 791.18 190.972"></polyline>
            <path d="M804.936,204.585 L815.163,204.585 C819.014,204.585 820.94,204.253 822.467,203.257 C824.26,202.061 825.256,200.136 825.256,197.546 C825.256,194.69 823.928,192.433 821.604,191.503 C820.409,191.038 818.483,190.772 816.159,190.772 L804.936,190.772 L804.936,204.585 Z M818.151,184.331 C822.534,184.331 825.057,184.862 827.448,186.323 C831.034,188.448 833.026,192.101 833.026,196.616 C833.026,201.995 830.436,205.913 825.721,207.573 C827.713,207.905 829.241,208.968 830.502,210.761 C831.897,213.218 832.03,213.815 832.694,221.718 C833.026,225.237 833.424,226.964 834.221,228.026 L834.686,228.624 L826.319,228.624 C825.456,227.03 825.323,226.233 824.924,219.726 C824.659,215.608 823.53,212.753 821.67,211.624 C820.409,210.761 818.217,210.362 815.229,210.362 L804.936,210.362 L804.936,228.624 L797.167,228.624 L797.167,184.331 L818.151,184.331 Z" id="Fill-17" fill="#636463"></path>
            <path d="M863.949,201.065 C862.355,196.683 861.824,194.956 860.894,191.769 C860.097,194.558 859.632,195.819 857.773,200.933 L854.121,210.96 L867.601,210.96 L863.949,201.065 Z M882.144,228.624 L873.843,228.624 L869.593,216.87 L852.128,216.87 L847.746,228.624 L839.71,228.624 L856.843,184.331 L865.144,184.331 L882.144,228.624 Z" id="Fill-18" fill="#636463"></path>
            <polyline id="Fill-19" fill="#636463" points="918.153 228.624 887.805 228.624 887.805 184.331 895.575 184.331 895.575 221.983 918.153 221.983 918.153 228.624"></polyline>
            <polygon id="Fill-20" fill="#636463" points="924.378 228.624 932.148 228.624 932.148 184.331 924.378 184.331"></polygon>
            <g id="Group-24" transform="translate(0.000000, 75.000000)">
                <mask id="mask-2" fill="white">
                    <use xlink:href="#path-1"></use>
                </mask>
                <g id="Clip-22"></g>
                <path d="M961.963,126.065 C960.37,121.683 959.838,119.956 958.909,116.769 C958.112,119.558 957.647,120.819 955.788,125.933 L952.135,135.96 L965.616,135.96 L961.963,126.065 Z M980.159,153.624 L971.858,153.624 L967.608,141.87 L950.143,141.87 L945.76,153.624 L937.725,153.624 L954.858,109.331 L963.159,109.331 L980.159,153.624 Z" id="Fill-21" fill="#636463" mask="url(#mask-2)"></path>
                <polyline id="Fill-23" fill="#00A0D3" mask="url(#mask-2)" points="92.134 185.243 0 93.109 92.134 0.975 184.268 93.11 92.134 185.243"></polyline>
            </g>
            <polyline id="Fill-25" fill="#7DBC49" points="292.139 251.648 180.255 139.762 292.139 27.881 404.024 139.766 292.139 251.648"></polyline>
            <g id="Group-29" transform="translate(104.000000, 0.000000)">
                <mask id="mask-4" fill="white">
                    <use xlink:href="#path-3"></use>
                </mask>
                <g id="Clip-27"></g>
                <polyline id="Fill-26" fill="#83CCE6" mask="url(#mask-4)" points="64.085 127.592 0.304 63.812 64.085 0.024 127.867 63.804 64.085 127.592"></polyline>
                <polyline id="Fill-28" fill="#F2AF46" mask="url(#mask-4)" points="230.492 294 200.345 263.853 230.492 233.707 260.638 263.854 230.492 294"></polyline>
            </g>
        </g>
    </g>
</svg>